<svg width="154" height="55" viewBox="0 0 154 55" fill="none" xmlns="http://www.w3.org/2000/svg">
<path d="M2.125 54C1.625 54 1.175 53.825 0.775001 53.475C0.425 53.125 0.25 52.675 0.25 52.125V3.375C0.25 2.825 0.425 2.375 0.775001 2.025C1.175 1.675 1.625 1.5 2.125 1.5H10.225C11.025 1.5 11.625 1.725 12.025 2.175C12.475 2.575 12.75 2.9 12.85 3.15L26.05 26.85L39.25 3.15C39.4 2.9 39.65 2.575 40 2.175C40.4 1.725 41.025 1.5 41.875 1.5H49.9C50.45 1.5 50.9 1.675 51.25 2.025C51.65 2.375 51.85 2.825 51.85 3.375V52.125C51.85 52.675 51.65 53.125 51.25 53.475C50.9 53.825 50.45 54 49.9 54H40.975C40.425 54 39.95 53.825 39.55 53.475C39.2 53.125 39.025 52.675 39.025 52.125V24L30.55 39.675C30.35 40.125 30.05 40.525 29.65 40.875C29.25 41.225 28.7 41.4 28 41.4H24.1C23.4 41.4 22.85 41.225 22.45 40.875C22.05 40.525 21.725 40.125 21.475 39.675L13 24V52.125C13 52.675 12.825 53.125 12.475 53.475C12.125 53.825 11.675 54 11.125 54H2.125ZM64.1611 54C63.6111 54 63.1611 53.825 62.8111 53.475C62.4611 53.125 62.2861 52.675 62.2861 52.125V3.375C62.2861 2.825 62.4611 2.375 62.8111 2.025C63.1611 1.675 63.6111 1.5 64.1611 1.5H98.5861C99.1361 1.5 99.5861 1.675 99.9361 2.025C100.336 2.375 100.536 2.825 100.536 3.375V10.95C100.536 11.5 100.336 11.95 99.9361 12.3C99.5861 12.65 99.1361 12.825 98.5861 12.825H75.4861V23.85H97.0861C97.6361 23.85 98.0861 24.05 98.4361 24.45C98.8361 24.8 99.0361 25.25 99.0361 25.8V33.3C99.0361 33.8 98.8361 34.25 98.4361 34.65C98.0861 35 97.6361 35.175 97.0861 35.175H75.4861V52.125C75.4861 52.675 75.3111 53.125 74.9611 53.475C74.6111 53.825 74.1611 54 73.6111 54H64.1611ZM129.734 54.75C124.984 54.75 120.909 53.975 117.509 52.425C114.159 50.875 111.534 48.6 109.634 45.6C107.784 42.6 106.759 38.875 106.559 34.425C106.509 32.375 106.484 30.175 106.484 27.825C106.484 25.475 106.509 23.225 106.559 21.075C106.759 16.725 107.809 13.05 109.709 10.05C111.609 7 114.259 4.7 117.659 3.15C121.059 1.55 125.084 0.749997 129.734 0.749997C133.034 0.749997 136.084 1.175 138.884 2.025C141.684 2.825 144.134 4.025 146.234 5.625C148.334 7.175 149.959 9.075 151.109 11.325C152.309 13.525 152.934 16.025 152.984 18.825C153.034 19.275 152.884 19.65 152.534 19.95C152.234 20.25 151.859 20.4 151.409 20.4H141.284C140.634 20.4 140.134 20.275 139.784 20.025C139.434 19.725 139.134 19.2 138.884 18.45C138.184 15.8 137.034 14 135.434 13.05C133.884 12.05 131.959 11.55 129.659 11.55C126.909 11.55 124.734 12.325 123.134 13.875C121.534 15.375 120.659 17.9 120.509 21.45C120.359 25.55 120.359 29.75 120.509 34.05C120.659 37.6 121.534 40.15 123.134 41.7C124.734 43.2 126.909 43.95 129.659 43.95C131.959 43.95 133.909 43.45 135.509 42.45C137.109 41.45 138.234 39.65 138.884 37.05C139.084 36.3 139.359 35.8 139.709 35.55C140.109 35.25 140.634 35.1 141.284 35.1H151.409C151.859 35.1 152.234 35.25 152.534 35.55C152.884 35.85 153.034 36.225 152.984 36.675C152.934 39.475 152.309 42 151.109 44.25C149.959 46.45 148.334 48.35 146.234 49.95C144.134 51.5 141.684 52.7 138.884 53.55C136.084 54.35 133.034 54.75 129.734 54.75Z" fill="url(#paint0_linear_612_3)"/>
<defs>
<linearGradient id="paint0_linear_612_3" x1="-5" y1="14" x2="127.973" y2="37.1536" gradientUnits="userSpaceOnUse">
<stop offset="0.169553" stop-color="#0085FF" stop-opacity="0.45"/>
<stop offset="0.413644" stop-color="#02C7FC" stop-opacity="0.526042"/>
<stop offset="0.755208" stop-color="#03D2FA" stop-opacity="0.823252"/>
<stop offset="0.958333" stop-color="#04D9F9"/>
</linearGradient>
</defs>
</svg>
